# xmcd
#
# Track frame offsets:
#	150
#	13358
#	25299
#	38901
#	52595
#	64362
#	74575
#	85354
#	97916
#	110394
#	120550
#	132489
#	141364
#	153530
#	167040
#	179212
#	189347
#	202722
#	213758
#	226633
#	239395
#	248914
#	261474
#	270678
#	284008
#
# Disc length: 3946
#
# Revision: 1
# Processed by: cddbd v1.5.1PL0 Copyright (c) Steve Scherf et al.
# Submitted via: EasyCDDAExtractor 4.6.0.1
# Normalized: r0:TDELIM( - )
#
DISCID=740f6819
DTITLE=Various Artist - M-G-M Doo-Wops # 1
DYEAR=1900
DGENRE=blues
TTITLE0=Crickets - You're Mine
TTITLE1=Serenaders - I Wrote A Letter(unr version)
TTITLE2=Beale Street Boys - Baby Don't Be Mad At Me
TTITLE3=Red Caps - I Learned A Lesson I'll Never Forget
TTITLE4=Billy Williams Quartet - Between The Devil And The Deep Blue Sea
TTITLE5=Chants - Kiss Me Goodbye
TTITLE6=Ebonaires - Come In Mr. Blues
TTITLE7=Charles Calhoun - Why The Car Wont Go
TTITLE8=Crickets - I'll Cry No More
TTITLE9=Webtones - Walk Talk And Kiss
TTITLE10=Red Caps - Sugar Lips
TTITLE11=Ritchis Adams - You Were Mine
TTITLE12=Billy Williams Quartet - Busy Line
TTITLE13=Charles Calhoun - Smack Dab In The Middle
TTITLE14=Crickets - Milk And Gin
TTITLE15=Serenaders - Never Let Me Go
TTITLE16=Beale Street Boys - Until I Get You In My Dreams Tonight
TTITLE17=Webtones - My Lost Love
TTITLE18=Ebonaires - Bye Bye Bye Bye
TTITLE19=Billy Williams Quartet - Confetti
TTITLE20=Chords - Elephant Walk
TTITLE21=Billy Williams Quartet - Don't Grieve, Don't
TTITLE22=Serenaders - Dance Darlin' Dance
TTITLE23=Crickets - For You I Have Eyes
TTITLE24=Billy Williams Quartet - I Wont Cry Anymore
EXTD=
EXTT0=
EXTT1=
EXTT2=
EXTT3=
EXTT4=
EXTT5=
EXTT6=
EXTT7=
EXTT8=
EXTT9=
EXTT10=
EXTT11=
EXTT12=
EXTT13=
EXTT14=
EXTT15=
EXTT16=
EXTT17=
EXTT18=
EXTT19=
EXTT20=
EXTT21=
EXTT22=
EXTT23=
EXTT24=
PLAYORDER=
